<?xml version="1.0" encoding="utf-8"?>
<!-- Generator: Adobe Illustrator 27.0.1, SVG Export Plug-In . SVG Version: 6.00 Build 0)  -->
<svg version="1.1" id="Layer_1" xmlns="http://www.w3.org/2000/svg" xmlns:xlink="http://www.w3.org/1999/xlink" x="0px" y="0px"
	 width="120px" height="90px" viewBox="0 0 120 90" style="enable-background:new 0 0 120 90;" xml:space="preserve">
<style type="text/css">
	.st0{fill:#264DE4;}
	.st1{fill:#2965F1;}
	.st2{fill:#EBEBEB;}
	.st3{fill:#FFFFFF;}
</style>
<g>
	<polygon id="polygon2989" class="st0" points="100.3,-0.1 93,80.9 60.5,89.9 28.1,80.9 20.9,-0.1 	"/>
	<polygon id="polygon2991" class="st1" points="86.8,75.7 93,6.5 60.6,6.5 60.6,83 	"/>
	<polygon id="polygon2993" class="st2" points="37.5,36.6 38.4,46.5 60.6,46.5 60.6,36.6 	"/>
	<polygon id="polygon2995" class="st2" points="60.6,16.5 60.5,16.5 35.7,16.5 36.6,26.4 60.6,26.4 	"/>
	<polygon id="polygon2997" class="st2" points="60.6,72.7 60.6,62.4 60.5,62.4 49.5,59.4 48.8,51.5 43.4,51.5 38.8,51.5 40.2,67.1 
		60.5,72.7 	"/>
	<polygon id="polygon3005" class="st3" points="72.8,46.5 71.6,59.4 60.5,62.4 60.5,72.7 80.9,67.1 81.1,65.4 83.4,39.2 83.6,36.6 
		85.4,16.5 60.5,16.5 60.5,26.4 74.5,26.4 73.6,36.6 60.5,36.6 60.5,46.5 	"/>
</g>
</svg>
