<?xml version="1.0" encoding="utf-8"?>
<!-- Generator: Adobe Illustrator 27.0.1, SVG Export Plug-In . SVG Version: 6.00 Build 0)  -->
<svg version="1.1" id="Layer_1" xmlns="http://www.w3.org/2000/svg" xmlns:xlink="http://www.w3.org/1999/xlink" x="0px" y="0px"
	 width="120px" height="90px" viewBox="0 0 120 90" style="enable-background:new 0 0 120 90;" xml:space="preserve">
<style type="text/css">
	.st0{fill:#E34E26;}
	.st1{fill:#EF662A;}
	.st2{fill:#FFFFFF;}
	.st3{fill:#EBEBEB;}
</style>
<g id="Logo_artwork">
</g>
<g id="Guides_to_delete">
	<g>
		<polygon class="st0" points="28.2,81 21,0 100.3,0 93,81 60.6,90 		"/>
		<polygon class="st1" points="60.6,6.7 60.6,83.2 86.9,75.9 93,6.7 		"/>
		<polygon class="st2" points="35.7,16.6 38.4,46.6 72.8,46.6 71.7,59.5 60.6,62.5 49.5,59.5 48.8,51.2 38.8,51.2 40.3,67.2 
			60.6,72.8 81,67.2 83.7,36.7 47.5,36.7 46.6,26.5 84.6,26.5 84.6,26.5 85.5,16.6 		"/>
		<g>
			<polygon class="st3" points="60.6,16.6 35.7,16.6 38.4,46.6 60.6,46.6 60.6,36.7 47.5,36.7 46.6,26.5 60.6,26.5 			"/>
			<polygon class="st3" points="60.6,62.5 60.6,62.5 49.5,59.5 48.8,51.2 38.8,51.2 40.3,67.2 60.6,72.8 60.6,72.8 			"/>
		</g>
	</g>
</g>
</svg>
