<?xml version="1.0" encoding="utf-8"?>
<!-- Generator: Adobe Illustrator 24.1.2, SVG Export Plug-In . SVG Version: 6.00 Build 0)  -->
<svg version="1.1" id="Layer_1" xmlns="http://www.w3.org/2000/svg" xmlns:xlink="http://www.w3.org/1999/xlink" x="0px" y="0px"
	 width="120px" height="90px" viewBox="0 0 120 90" style="enable-background:new 0 0 120 90;" xml:space="preserve">
<style type="text/css">
	.st0{fill:#330000;}
	.st1{fill:#FF9A00;}
</style>
<g>
	<path class="st0" d="M30.7,0h59.6c9,0,16.3,7.3,16.3,16.3v57.3c0,9-7.3,16.3-16.3,16.3H30.7c-9,0-16.3-7.3-16.3-16.3V16.3
		C14.3,7.3,21.6,0,30.7,0z"/>
	<g>
		<path class="st1" d="M58.9,53.8H44.6l-2.9,9c-0.1,0.3-0.4,0.6-0.7,0.5h-7.2c-0.4,0-0.5-0.2-0.4-0.7l12.4-35.7
			c0.1-0.4,0.2-0.8,0.4-1.3c0.2-0.8,0.2-1.7,0.2-2.5c0-0.2,0.1-0.4,0.3-0.4h10c0.3,0,0.5,0.1,0.5,0.3l14,39.6c0.1,0.4,0,0.6-0.4,0.6
			h-8c-0.3,0-0.5-0.2-0.6-0.4L58.9,53.8z M46.9,46h9.8c-0.2-0.8-0.5-1.8-0.9-2.8c-0.3-1-0.7-2.2-1-3.3c-0.4-1.2-0.7-2.3-1.1-3.5
			c-0.4-1.2-0.7-2.3-1-3.4c-0.3-1.1-0.6-2.1-0.8-3h-0.1c-0.3,1.7-0.8,3.3-1.3,5c-0.6,1.8-1.2,3.8-1.8,5.7C48,42.6,47.4,44.4,46.9,46
			L46.9,46z M79.7,29.6c-1.3,0-2.5-0.5-3.4-1.3c-0.9-1-1.3-2.2-1.3-3.5c0-1.3,0.5-2.5,1.4-3.4s2.2-1.3,3.4-1.3
			c1.5,0,2.7,0.5,3.5,1.3c0.8,0.9,1.3,2.2,1.3,3.4c0,1.3-0.4,2.6-1.3,3.5C82.3,29.2,81,29.7,79.7,29.6L79.7,29.6z M75.4,63V33.4
			c0-0.4,0.2-0.5,0.5-0.5h7.6c0.3,0,0.5,0.2,0.5,0.5V63c0,0.4-0.2,0.6-0.5,0.6H76C75.6,63.6,75.4,63.4,75.4,63z"/>
	</g>
</g>
</svg>
