<?xml version="1.0" encoding="utf-8"?>
<!-- Generator: Adobe Illustrator 24.1.2, SVG Export Plug-In . SVG Version: 6.00 Build 0)  -->
<svg version="1.1" id="Layer_1" xmlns="http://www.w3.org/2000/svg" xmlns:xlink="http://www.w3.org/1999/xlink" x="0px" y="0px"
	 width="120px" height="90px" viewBox="0 0 120 90" style="enable-background:new 0 0 120 90;" xml:space="preserve">
<style type="text/css">
	.st0{fill:#0ACF83;}
	.st1{fill:#A259FF;}
	.st2{fill:#F24E1E;}
	.st3{fill:#FF7262;}
	.st4{fill:#1ABCFE;}
</style>
<g>
	<path class="st0" d="M45.5,90c8.3,0,15-6.7,15-15V60h-15c-8.3,0-15,6.7-15,15S37.2,90,45.5,90z"/>
	<path class="st1" d="M30.5,45c0-8.3,6.7-15,15-15h15v30h-15C37.2,60,30.5,53.3,30.5,45z"/>
	<path class="st2" d="M30.5,15c0-8.3,6.7-15,15-15h15v30h-15C37.2,30,30.5,23.3,30.5,15z"/>
	<path class="st3" d="M60.5,0h15c8.3,0,15,6.7,15,15s-6.7,15-15,15h-15V0z"/>
	<path class="st4" d="M90.5,45c0,8.3-6.7,15-15,15s-15-6.7-15-15s6.7-15,15-15S90.5,36.7,90.5,45z"/>
</g>
</svg>
